<svg width="32" height="32" viewBox="0 0 32 32" fill="none" xmlns="http://www.w3.org/2000/svg">
<path d="M0.991317 16.1L0.88465 16.0467C0.64465 15.9133 0.457983 15.7133 0.32465 15.46C0.137983 15.1133 0.0579834 14.7933 0.0579834 14.46L0.0846501 14.2867C0.0846501 14.02 0.151317 13.78 0.271317 13.5533L0.377983 13.3533C0.431317 13.2467 0.511317 13.1533 0.577983 13.06C0.657983 12.9667 0.671317 12.8467 0.64465 12.74L0.577983 12.5267C0.497983 12.26 0.44465 11.9933 0.44465 11.7267L0.40465 11.5667C0.40465 11.2733 0.48465 10.98 0.671317 10.7667L0.80465 10.5933C0.897983 10.46 1.04465 10.38 1.20465 10.3267C1.33798 10.2867 1.43132 10.1533 1.44465 9.99333L1.47132 9.54C1.47132 9.18 1.64465 8.84667 1.91132 8.60667L2.23132 8.36667C2.29798 8.3 2.36465 8.23333 2.41798 8.12667C2.48465 8.04667 2.49798 7.94 2.48465 7.86C2.45798 7.72667 2.48465 7.68667 2.55132 7.67333C2.76465 7.75333 2.89798 7.72667 2.99132 7.62L3.16465 7.39333L3.64465 6.86C3.77798 6.72667 3.83132 6.48667 3.75132 6.3L3.59132 5.95333C3.56465 5.87333 3.59132 5.78 3.65798 5.75333C3.83132 5.75333 3.95132 5.82 4.00465 5.92667L4.05798 6.02C4.13798 6.18 4.32465 6.26 4.45798 6.19333C4.75132 6.08667 4.99132 6.06 5.21798 6.06H5.64465C5.93798 6.06 6.17798 5.86 6.23132 5.55333C6.28465 5.18 6.41798 4.88667 6.60465 4.68667C6.80465 4.46 7.03132 4.28667 7.29798 4.15333C7.64465 3.96667 7.85798 3.7 7.92465 3.35333C8.01798 2.92667 8.24465 2.62 8.55132 2.42L9.56465 1.84667L9.85798 1.67333C10.0313 1.56667 10.1913 1.43333 10.3247 1.27333L10.5913 0.953333C10.7247 0.82 10.858 0.726667 11.018 0.686667C11.1513 0.646667 11.338 0.62 11.498 0.633333L12.0313 0.673333C12.298 0.673333 12.5113 0.74 12.7247 0.833333L12.858 0.9C12.9913 0.953333 13.1246 0.926667 13.1913 0.833333L13.3113 0.766667L13.8847 0.166667C14.018 0.0333333 14.178 -0.02 14.3513 0.00666667C14.5246 0.0333333 14.698 0.1 14.858 0.18C15.098 0.313333 15.298 0.366667 15.5246 0.366667H15.658C15.9513 0.366667 16.2447 0.406667 16.538 0.473333L16.738 0.526667C16.938 0.58 17.138 0.5 17.2713 0.34C17.3113 0.273333 17.4046 0.26 17.458 0.313333C17.498 0.34 17.5113 0.366667 17.5246 0.406667C17.5513 0.673333 17.7113 0.873333 17.9247 0.94L18.138 1.00667C18.3646 1.07333 18.5647 1.22 18.698 1.40667C18.8313 1.60667 18.9913 1.80667 19.178 1.94L19.3113 2.07333C19.4447 2.20667 19.6313 2.26 19.818 2.24667H20.6047C20.9247 2.24667 21.2313 2.3 21.538 2.43333C21.8313 2.56667 22.138 2.59333 22.418 2.48667C22.7113 2.39333 23.018 2.35333 23.3247 2.39333L23.898 2.48667C24.1647 2.51333 24.4313 2.64667 24.5913 2.84667L24.658 2.91333C24.7913 3.04667 24.9247 3.22 25.058 3.40667C25.138 3.58 25.3247 3.67333 25.5113 3.67333H26.338C26.538 3.67333 26.738 3.71333 26.898 3.80667C27.0713 3.94 27.218 4.07333 27.3513 4.20667L27.4847 4.38C27.6447 4.56667 27.7247 4.82 27.7113 5.08667C27.7113 5.3 27.8713 5.48667 28.0847 5.48667L28.3513 5.51333C28.538 5.51333 28.698 5.64667 28.7913 5.82L28.9247 6.08667L29.2713 6.86C29.3247 6.99333 29.338 7.12667 29.3247 7.23333C29.3247 7.36667 29.3647 7.47333 29.458 7.52667L29.5913 7.62C29.7647 7.75333 29.858 7.95333 29.8313 8.18L29.738 8.80667L29.7113 9.07333C29.6847 9.20667 29.7513 9.38 29.8713 9.47333C30.0713 9.60667 30.1647 9.78 30.178 9.98V10.2467C30.178 10.38 30.1513 10.54 30.0447 10.6467C29.9647 10.7533 29.9113 10.8867 29.9113 11.0467L29.9513 11.3533C29.9513 11.5667 30.0847 11.7533 30.218 11.8867C30.4047 12.02 30.5113 12.2333 30.538 12.4467C30.5913 12.78 30.6047 13.0467 30.6047 13.3133V13.62C30.6047 13.7267 30.6047 13.8333 30.6447 13.94C30.6713 14.0333 30.738 14.1267 30.818 14.18L31.0847 14.38C31.3513 14.5533 31.538 14.78 31.6447 15.0867C31.778 15.38 31.818 15.6867 31.818 15.9933V16.1C31.818 16.34 31.7913 16.5933 31.7113 16.82C31.6447 17.06 31.658 17.2867 31.7513 17.4867C31.858 17.6733 31.9247 17.8867 31.9513 18.1133C32.0047 18.38 31.978 18.6467 31.8847 18.86L31.858 18.9533C31.7913 19.1133 31.6847 19.26 31.5513 19.38C31.418 19.5133 31.2847 19.5933 31.2047 19.6867C31.1247 19.7667 31.0713 19.9 31.1113 20.02L31.1513 20.2067C31.218 20.4733 31.218 20.74 31.1513 20.98V21.0867C31.098 21.2867 31.018 21.46 30.938 21.62C30.8447 21.7933 30.7113 21.9267 30.538 22.02L30.338 22.1533C30.2447 22.2067 30.178 22.3267 30.178 22.4467C30.178 22.58 30.1247 22.7133 30.0447 22.7933L29.8447 23.06C29.7113 23.2333 29.538 23.38 29.3513 23.46C29.1647 23.5933 29.0047 23.7267 28.8847 23.86C28.7513 24.02 28.6447 24.2067 28.5913 24.3933C28.538 24.6333 28.3513 24.7667 28.1513 24.7667H27.4313C27.2447 24.7667 27.0713 24.9 26.9913 25.06C26.898 25.2733 26.8047 25.42 26.6847 25.5533C26.5513 25.6867 26.4713 25.8467 26.418 26.0333C26.3913 26.1933 26.258 26.3 26.1247 26.2467C25.9513 26.1667 25.778 26.2467 25.698 26.38C25.538 26.6467 25.378 26.8467 25.2047 27.02L25.1113 27.1C24.938 27.2333 24.7113 27.34 24.5113 27.34C24.2713 27.34 24.1513 27.4467 24.1113 27.6067C24.0713 27.74 24.0447 27.9133 24.0313 28.06C24.0047 28.22 23.9513 28.3667 23.898 28.5L23.8313 28.58C23.698 28.78 23.5913 28.98 23.458 29.1533L23.4047 29.2333C23.2313 29.46 23.0047 29.6333 22.738 29.7C22.418 29.8067 22.138 29.8333 21.858 29.8333H21.6713C21.538 29.8333 21.4047 29.9133 21.3113 30.0467L21.2313 30.18L21.1513 30.34L20.978 30.6333C20.8447 30.8733 20.6447 31.0333 20.378 31.1133C20.1113 31.18 19.8046 31.2067 19.5246 31.1933L19.3113 31.1667C19.1247 31.1667 18.9513 31.1133 18.778 31.0333C18.6447 30.98 18.458 31.0333 18.378 31.1667C18.2447 31.3533 18.0846 31.46 17.9113 31.5133L17.5113 31.6467C17.2446 31.7133 16.9513 31.7133 16.6713 31.6467L16.458 31.58C16.3246 31.58 16.1913 31.5133 16.0846 31.4467C15.9513 31.38 15.818 31.3533 15.6846 31.3667L15.5113 31.3933C15.2446 31.42 15.0047 31.3933 14.7647 31.3267L14.4046 31.2467C14.2446 31.1933 14.098 31.0867 14.0047 30.94C13.938 30.8067 13.7913 30.7 13.6047 30.6733H13.178C12.9113 30.6333 12.6713 30.54 12.5113 30.34L11.978 29.8333L11.7913 29.6733L11.498 29.46L11.3247 29.3267C11.1247 29.1933 10.8847 29.0867 10.6313 29.06L9.83132 28.9267C9.75132 28.9267 9.69798 28.9 9.61798 28.8867L9.31132 28.82C9.17798 28.7933 9.04465 28.6867 8.95132 28.5533C8.87132 28.42 8.72465 28.3667 8.59132 28.42C8.32465 28.5267 8.11132 28.5533 7.89798 28.5933H7.71132C7.36465 28.62 7.04465 28.5667 6.72465 28.42C6.40465 28.2867 6.19132 28.0867 5.99132 27.8333C5.83132 27.6067 5.59132 27.4333 5.29798 27.38L4.92465 27.3C4.65798 27.2467 4.39132 27.14 4.15132 26.98C3.88465 26.7933 3.75132 26.62 3.64465 26.4067C3.53798 26.2067 3.47132 25.98 3.45798 25.74V25.6333C3.43132 25.3667 3.24465 25.1267 2.99132 25.06C2.68465 24.9667 2.45798 24.8333 2.25798 24.66C2.07132 24.4867 1.96465 24.2333 1.96465 23.9667L1.99132 23.38C1.99132 23.1533 1.92465 22.9533 1.76465 22.8067C1.60465 22.6467 1.49798 22.4467 1.49798 22.2333L1.45798 21.7533C1.43132 21.4067 1.36465 21.06 1.28465 20.7133C1.20465 20.4067 1.32465 20.1 1.57798 19.9533L1.67132 19.8867C1.80465 19.7933 1.85798 19.62 1.77798 19.46L1.67132 19.3267C1.53798 19.1933 1.40465 19.1 1.27132 19.06C1.16465 19.0333 1.13798 18.9267 1.13798 18.86L1.27132 18.7C1.35132 18.6067 1.33798 18.46 1.27132 18.38C1.16465 18.2733 1.11132 18.14 1.09798 18.0067L1.07132 17.0733C1.07132 16.8867 1.09798 16.7 1.15132 16.5133C1.20465 16.3533 1.15132 16.1667 0.991317 16.0867V16.1ZM14.1913 14.34C14.2846 14.2467 14.2713 14.0733 14.1913 14.0067C14.058 13.9 13.9647 13.78 13.8847 13.6467L13.7513 13.4333C13.658 13.26 13.538 13.1133 13.4046 12.98L13.378 12.9533C13.2447 12.8467 13.1513 12.7133 13.0713 12.5533C13.0046 12.42 13.0046 12.2867 13.0713 12.1533L13.1513 12.02C13.2313 11.8867 13.2846 11.7 13.2846 11.54V11.4867C13.2846 11.3533 13.2313 11.22 13.1513 11.0867C13.098 10.98 13.0446 10.8467 13.018 10.7133V10.6333C12.978 10.4733 13.018 10.3 13.1246 10.1667C13.2313 9.99333 13.3113 9.83333 13.3513 9.63333V9.60667C13.4046 9.47333 13.378 9.3 13.298 9.16667C13.218 9.03333 13.1913 8.9 13.2446 8.74L13.338 8.47333C13.418 8.23333 13.538 8.02 13.698 7.83333L13.8847 7.63333L14.018 7.47333L14.098 7.39333C14.178 7.31333 14.1913 7.18 14.1246 7.07333C14.058 6.94 14.018 6.80667 14.0447 6.67333L14.0713 6.48667C14.1113 6.22 14.2047 5.95333 14.378 5.74L14.4313 5.68667C14.6313 5.42 14.8846 5.24667 15.178 5.15333L15.538 5.02C15.698 4.96667 15.8046 4.79333 15.8046 4.62C15.8046 4.40667 15.8713 4.22 15.9913 4.04667L16.058 3.98C16.1913 3.75333 16.3513 3.52667 16.458 3.28667L16.5513 3.11333C16.578 3.07333 16.5913 3.02 16.5913 2.98C16.5913 2.75333 16.458 2.55333 16.2446 2.54L15.658 2.5C15.3247 2.47333 14.9913 2.5 14.6713 2.5L13.538 2.63333C13.3647 2.63333 13.2313 2.76667 13.218 2.95333C13.218 3.14 13.0846 3.3 12.9246 3.35333L12.4447 3.48667L12.3113 3.52667L11.9113 3.66C11.618 3.75333 11.378 3.96667 11.2446 4.26L11.138 4.43333C11.0046 4.72667 10.778 4.96667 10.498 5.14C10.2313 5.31333 10.098 5.59333 10.0713 5.91333V6.04667C10.0447 6.31333 9.96465 6.58 9.80465 6.76667L9.73798 6.87333C9.63132 7.00667 9.60465 7.18 9.67132 7.32667C9.73798 7.48667 9.77798 7.66 9.76465 7.83333V8.54C9.76465 8.72667 9.63132 8.88667 9.49798 8.94C9.31132 9.00667 9.19132 9.15333 9.13798 9.34L9.07132 9.60667C9.01798 9.87333 9.11132 10.14 9.33798 10.3C9.55132 10.46 9.68465 10.7 9.73798 10.9933V11.2333C9.77798 11.5 9.92465 11.7667 10.1647 11.9C10.4047 12.06 10.5913 12.3 10.698 12.5667L10.7647 12.78C10.8713 13.0733 11.1113 13.2467 11.378 13.2733H11.458C11.698 13.2733 11.9113 13.4067 12.0447 13.62C12.178 13.8333 12.3913 13.98 12.6313 14.02L13.0047 14.1267C13.2313 14.1933 13.4446 14.3133 13.618 14.4867L13.6446 14.5133C13.778 14.62 13.9913 14.6067 14.1113 14.46L14.2047 14.3533L14.1913 14.34ZM15.7113 13.1133C15.8447 13.1933 15.978 13.1533 16.0313 13.0333L16.0713 12.9667C16.1646 12.78 16.2846 12.5933 16.418 12.4333L16.6846 12.0333C16.7246 12.0333 16.738 12.0067 16.7513 11.98L17.0713 11.5533C17.2046 11.42 17.3647 11.3267 17.5513 11.3267C17.7247 11.3267 17.8713 11.2333 17.9513 11.06C18.0046 10.8733 18.0846 10.7 18.2446 10.5533L18.3113 10.4733C18.4447 10.34 18.578 10.2733 18.7113 10.2067C18.8847 10.18 19.0447 10.1533 19.2047 10.1533H19.6047C19.7647 10.1533 19.898 10.0867 19.978 9.95333C20.058 9.82 20.178 9.72667 20.3113 9.66L20.4447 9.60667C20.658 9.51333 20.898 9.44667 21.138 9.42L21.4047 9.39333C21.5647 9.39333 21.738 9.39333 21.898 9.48667C22.0313 9.58 22.2047 9.56667 22.338 9.46L22.4313 9.40667C22.6313 9.27333 22.858 9.16667 23.098 9.14H23.1247C23.3913 9.08667 23.6313 9.08667 23.898 9.1H24.0313C24.298 9.14 24.5247 9.23333 24.698 9.43333L24.738 9.48667C24.8713 9.62 25.0847 9.72667 25.2713 9.72667H25.498C25.5647 9.72667 25.6313 9.7 25.6713 9.63333C25.7113 9.59333 25.778 9.55333 25.8447 9.55333H25.978C26.1647 9.55333 26.338 9.60667 26.5113 9.66L26.738 9.75333C26.9513 9.82 27.178 9.88667 27.4047 9.91333H27.5647C27.6713 9.91333 27.738 9.84667 27.738 9.75333C27.738 9.62 27.7113 9.48667 27.6447 9.38L27.5513 9.16667C27.4447 8.99333 27.3647 8.80667 27.2847 8.63333L27.258 8.56667C27.1913 8.43333 27.1913 8.3 27.258 8.16667V8.1C27.2847 7.99333 27.2313 7.87333 27.1247 7.83333H27.018C26.8047 7.76667 26.618 7.64667 26.4847 7.47333L26.3513 7.34C26.218 7.20667 26.138 7.00667 26.0847 6.80667C26.018 6.63333 25.8713 6.5 25.6847 6.5H25.1247C24.9247 6.47333 24.7513 6.36667 24.6313 6.20667L24.578 6.14C24.4847 6.00667 24.4047 5.84667 24.3513 5.68667C24.2847 5.55333 24.138 5.47333 24.0047 5.51333L23.8447 5.56667C23.578 5.66 23.3113 5.7 23.0447 5.67333L22.8313 5.64667C22.6047 5.64667 22.3913 5.55333 22.218 5.42L22.0847 5.32667C21.978 5.24667 21.8713 5.19333 21.7513 5.14C21.618 5.08667 21.5113 5.11333 21.4313 5.20667L21.3647 5.28667C21.2313 5.42 21.0446 5.52667 20.858 5.55333L20.138 5.59333C20.0046 5.59333 19.8713 5.66 19.778 5.75333C19.6713 5.84667 19.5513 5.91333 19.418 5.94H19.3913C19.258 5.94 19.1247 6.03333 18.9913 6.12667V6.15333C18.858 6.28667 18.6846 6.35333 18.5113 6.35333L18.458 6.38C18.298 6.38 18.138 6.38 17.978 6.42H17.818C17.5913 6.46 17.418 6.64667 17.3646 6.88667L17.3113 7.19333C17.2713 7.40667 17.178 7.59333 17.0447 7.76667C16.9113 7.92667 16.7513 8.03333 16.5513 8.03333H16.3513H16.3247C16.1913 8.06 16.058 8.20667 16.0846 8.36667C16.1113 8.59333 16.0847 8.79333 16.0447 8.99333L15.9913 9.22C15.938 9.42 15.8046 9.58 15.6313 9.64667L15.5513 9.68667H15.5246C15.4446 9.74 15.3913 9.86 15.458 9.95333C15.538 10.0867 15.5647 10.22 15.5513 10.3533L15.5113 10.78C15.5113 10.94 15.4447 11.0867 15.378 11.22C15.298 11.3533 15.298 11.4867 15.3513 11.62L15.4847 11.9133C15.5513 12.0467 15.5646 12.18 15.5246 12.34C15.4846 12.4733 15.458 12.6067 15.4713 12.74C15.4713 12.8733 15.5513 13.0067 15.658 13.06L15.6846 13.0867L15.7113 13.1133ZM26.2447 22.7533C26.378 22.8867 26.578 22.94 26.738 22.8333L27.0047 22.66C27.138 22.5667 27.2447 22.4333 27.298 22.26V22.2333L27.4313 21.8333L27.5113 21.7L27.5647 21.5667L27.618 21.4733C27.6713 21.3667 27.7513 21.2867 27.8847 21.2467L27.938 21.22C28.0447 21.1933 28.1113 21.0867 28.1113 20.98C28.1113 20.8467 28.178 20.74 28.2447 20.6467L28.3513 20.5533L28.618 20.2067V20.18C28.698 20.0733 28.7513 19.9533 28.778 19.82C28.8047 19.6867 28.778 19.5533 28.7247 19.42L28.698 19.3667C28.6447 19.2333 28.618 19.14 28.6047 19.02L28.5647 18.6467L28.5247 18.2467C28.5247 18.1133 28.578 17.98 28.658 17.8467C28.7513 17.74 28.818 17.6067 28.8713 17.4733V17.42L28.898 17.3933C28.9247 17.26 28.858 17.1267 28.738 17.1267C28.6047 17.06 28.4713 16.9533 28.4313 16.7933L28.3913 16.7133C28.3247 16.4733 28.2847 16.2333 28.2847 15.9933L28.3113 15.3267V15.2867C28.3113 15.06 28.1247 14.8867 27.9113 14.8867H27.8847C27.618 14.8867 27.4047 14.8067 27.218 14.62L27.1113 14.4867L26.8447 14.18L26.498 13.78C26.3647 13.5933 26.2313 13.4333 26.058 13.2733C25.9247 13.14 25.7247 13.0067 25.5247 12.98L25.258 12.94C25.1247 12.9133 24.9513 12.8467 24.8047 12.7533C24.698 12.6733 24.538 12.7 24.4313 12.8067L24.258 12.9933L24.178 13.0467C24.0847 13.0733 23.9913 13.02 23.9513 12.9133C23.898 12.7533 23.898 12.5667 23.978 12.4067V12.3267C23.978 12.2333 23.898 12.1667 23.818 12.1933H23.6047C23.3647 12.1933 23.1247 12.1667 22.898 12.06L22.7647 12.0067C22.6313 11.94 22.4713 11.9 22.3247 11.9C22.1913 11.9 22.058 11.9267 21.9247 12.0067L21.8713 12.0467C21.7113 12.1533 21.5247 12.2067 21.338 12.22H20.898C20.698 12.22 20.498 12.2867 20.3647 12.3933C20.1913 12.5 20.0046 12.5667 19.8046 12.6067L19.4447 12.66C19.2847 12.7 19.1113 12.7667 18.9646 12.8867C18.8313 13.02 18.6446 13.1 18.4713 13.1533L18.4046 13.18C18.1913 13.2467 18.0047 13.38 17.8713 13.58L17.7113 13.74C17.618 13.8733 17.618 14.0333 17.7113 14.1667C17.7913 14.3 17.9513 14.34 18.1113 14.3L18.3113 14.22C18.418 14.18 18.538 14.22 18.6313 14.2733C18.7113 14.34 18.8313 14.38 18.9513 14.3667L19.2846 14.3267C19.4713 14.3267 19.658 14.3267 19.8446 14.38C20.0446 14.4467 20.218 14.5133 20.378 14.6467C20.538 14.78 20.7113 14.8333 20.9113 14.86C21.1113 14.8867 21.3113 14.9267 21.498 14.9933L21.6313 15.02C21.7647 15.06 21.8713 15.1533 21.9513 15.2867C22.018 15.3933 22.0847 15.5533 22.0847 15.6867V15.7267C22.0847 15.8867 22.218 15.9933 22.3513 15.9933H22.4313C22.6447 15.9933 22.8713 16.02 23.098 16.0867L23.1913 16.1267C23.3247 16.18 23.458 16.26 23.5513 16.3933C23.658 16.5267 23.7247 16.66 23.7647 16.7933L23.8047 16.98C23.8447 17.18 23.858 17.38 23.858 17.5933V17.66C23.858 17.7933 23.9513 17.9267 24.098 17.98C24.2313 18.0067 24.3913 18.06 24.538 18.14L24.6047 18.1667C24.778 18.2733 24.9513 18.4067 25.0847 18.5667L25.1513 18.66C25.3247 18.86 25.418 19.1133 25.418 19.3667V19.46C25.418 19.66 25.378 19.86 25.3113 20.0467C25.258 20.2067 25.3113 20.3933 25.4847 20.4467L25.578 20.5133C25.778 20.5933 25.9513 20.74 26.0847 20.9133C26.218 21.1133 26.2713 21.34 26.2713 21.58V21.98C26.2447 22.1133 26.2047 22.22 26.138 22.3133C26.0713 22.4067 26.0713 22.54 26.138 22.6333L26.218 22.7667L26.2447 22.7533ZM17.7113 15.9267H17.6846C17.6313 15.9267 17.6046 15.9933 17.618 16.06L17.6713 16.3267C17.7247 16.54 17.7513 16.7533 17.778 16.9667C17.8047 17.18 17.9113 17.3667 18.0713 17.5H18.1246C18.3246 17.66 18.4446 17.9 18.458 18.14V18.8067C18.4313 18.94 18.458 19.0733 18.538 19.18L18.6047 19.2467C18.738 19.4067 18.7913 19.5933 18.8046 19.78L18.8446 20.5133C18.8446 20.6867 18.738 20.8333 18.578 20.86L18.4447 20.8867C18.3513 20.8867 18.3113 20.9933 18.3113 21.0867C18.3113 21.1933 18.3513 21.3133 18.3913 21.42V21.4467C18.4313 21.58 18.4447 21.7133 18.4313 21.8467L18.378 22.2067C18.3247 22.4733 18.2447 22.7133 18.1113 22.9533L18.018 23.1133C17.9513 23.2467 17.858 23.3267 17.7513 23.38C17.618 23.4333 17.5247 23.54 17.4847 23.6733L17.378 24.1533C17.3113 24.42 17.1913 24.6867 17.0313 24.9533H17.0047C16.8447 25.1667 16.6446 25.3533 16.4046 25.4867L16.2446 25.5933L15.8446 25.7933C15.7113 25.8467 15.6313 25.9667 15.6047 26.1133L15.538 26.5533C15.498 26.82 15.4047 27.0467 15.218 27.22L15.0447 27.42L14.8446 27.62L14.6446 27.8333C14.4846 28.02 14.2446 28.1 13.978 28.06L13.498 27.9667L13.058 27.9133H12.938C12.8847 27.9667 12.8713 28.0467 12.9113 28.1267C13.0046 28.2867 13.1513 28.3933 13.3113 28.3933L13.6047 28.4467C13.738 28.4467 13.898 28.5133 14.0313 28.58C14.1646 28.6733 14.298 28.74 14.458 28.78H14.4847C14.658 28.8467 14.8446 28.86 15.018 28.8467L15.218 28.82C15.4447 28.7933 15.658 28.82 15.8446 28.9L16.0047 28.9533C16.0713 28.98 16.178 28.9533 16.2446 28.8867C16.3246 28.8067 16.4046 28.7533 16.5113 28.7133L16.618 28.6867C16.7913 28.6333 16.9647 28.6067 17.1513 28.6067H17.258C17.418 28.6067 17.5646 28.6333 17.698 28.7133L17.7513 28.74C17.8446 28.78 17.9513 28.74 18.018 28.66C18.058 28.5667 18.1513 28.4733 18.2446 28.3933L18.578 28.1667L18.7913 28.0333L18.898 27.9667C19.0313 27.8733 19.218 27.8333 19.378 27.8333L19.858 27.7933C20.0446 27.7667 20.2047 27.6333 20.258 27.4467C20.3113 27.2467 20.3913 27.0467 20.5246 26.8733C20.658 26.7 20.7913 26.5533 20.9247 26.42C21.098 26.2867 21.2713 26.22 21.458 26.2067H21.5647C21.778 26.1667 21.938 25.9667 21.9247 25.7533V25.7267V24.86C21.9513 24.7267 22.0047 24.5533 22.0847 24.42L22.3513 24.02L22.458 23.8867C22.538 23.82 22.5913 23.7267 22.6847 23.62L22.818 23.4467C22.898 23.3133 22.898 23.14 22.7913 23.02C22.658 22.8867 22.5913 22.7 22.5647 22.5133V22.46C22.538 22.2467 22.538 22.02 22.6047 21.7933V21.7267C22.6713 21.5533 22.7647 21.38 22.8713 21.22C22.978 21.0867 22.9647 20.9 22.8313 20.7933L22.6047 20.5933C22.418 20.4333 22.3113 20.1933 22.2847 19.9533L22.258 19.6867C22.258 19.6067 22.258 19.5133 22.2313 19.42L22.2047 19.22C22.178 18.9933 22.0447 18.82 21.858 18.6867L21.7647 18.66C21.6313 18.58 21.498 18.46 21.3913 18.3C21.2846 18.1667 21.2313 17.98 21.1913 17.7933L21.1513 17.5667C21.1513 17.4867 21.098 17.4333 21.018 17.3933L20.8046 17.3267L20.378 17.1933C20.2447 17.1667 20.1113 17.06 20.018 16.9667H19.9913C19.9113 16.86 19.778 16.86 19.698 16.94L19.5646 17.0733C19.538 17.1133 19.5113 17.1267 19.4713 17.1133C19.3913 17.1133 19.338 17.0467 19.3647 16.98C19.3913 16.7667 19.3113 16.5533 19.138 16.42L18.9646 16.2867L18.5646 16.02C18.458 15.98 18.298 16.02 18.2446 16.1533L18.1913 16.2333C18.1913 16.26 18.1513 16.2733 18.138 16.2867C18.0846 16.2867 18.0047 16.2867 18.0047 16.22L17.9646 16.1533C17.9246 16.0733 17.8313 16.02 17.7513 15.9933L17.7113 15.9267ZM16.1113 17.26L16.0447 17.1933C15.978 17.14 15.9113 17.1533 15.8446 17.22C15.7513 17.38 15.6713 17.5533 15.6313 17.7267V17.7533C15.5913 17.9267 15.4313 18.0467 15.2713 18.02H15.138H15.1113C14.9247 18.02 14.778 18.18 14.778 18.3667C14.778 18.6067 14.698 18.8467 14.5513 19.0333L14.4713 19.1133C14.338 19.2867 14.138 19.4067 13.938 19.4733L13.8313 19.5C13.698 19.54 13.5913 19.6333 13.5646 19.7933C13.5646 19.9267 13.4847 20.06 13.378 20.1667L13.2446 20.2733C13.0846 20.4467 12.8447 20.54 12.6047 20.5667L11.938 20.6333C11.7247 20.6333 11.538 20.7667 11.4046 20.9667C11.2713 21.1667 11.0713 21.3 10.8713 21.3267L10.578 21.3533C10.3647 21.38 10.138 21.38 9.91132 21.3267L9.77798 21.3L9.41798 21.2067C9.28465 21.1667 9.17798 21.2067 9.09798 21.3L8.96465 21.4733C8.79132 21.6733 8.53798 21.7667 8.29798 21.74L7.43132 21.6333C7.29798 21.6333 7.19132 21.5667 7.07132 21.5C6.93798 21.42 6.84465 21.3267 6.75132 21.2333L6.41798 20.8333C6.37798 20.8067 6.31132 20.7933 6.24465 20.8067L6.05798 20.8867L5.31132 21.0733C5.17798 21.1133 5.00465 21.0733 4.87132 20.9933C4.73798 20.8867 4.57798 20.86 4.41798 20.86H4.24465C4.08465 20.9 3.97798 21.0733 4.03132 21.2333L4.08465 21.5C4.12465 21.6333 4.11132 21.7933 4.04465 21.9267C3.97798 22.06 3.99132 22.1933 4.08465 22.3267L4.16465 22.4333C4.27132 22.5933 4.43132 22.7267 4.56465 22.86C4.69798 22.9933 4.83132 23.1267 4.93798 23.3L5.13798 23.66C5.24465 23.8467 5.40465 23.9533 5.61798 23.9533C5.81798 23.9533 6.01798 24.02 6.17798 24.1533L6.57798 24.5267C6.68465 24.62 6.84465 24.6333 6.95132 24.5533L7.01798 24.5267C7.09798 24.5267 7.15132 24.58 7.15132 24.66V24.7267C7.15132 24.9 7.28465 25.06 7.45798 25.1267L8.05798 25.26C8.27132 25.3267 8.48465 25.3933 8.68465 25.5267H8.79132C8.89798 25.5267 8.99132 25.4333 8.97798 25.3133V24.8467C8.97798 24.7133 9.03132 24.58 9.13798 24.5267L9.20465 24.5C9.27132 24.5267 9.33798 24.58 9.31132 24.6333V24.86C9.31132 25.0333 9.36465 25.1933 9.48465 25.3133C9.61798 25.4467 9.79132 25.4733 9.93798 25.42C10.098 25.3533 10.258 25.34 10.4313 25.3533L10.9246 25.38C11.1646 25.4067 11.3913 25.38 11.5913 25.2867C11.8313 25.2067 12.0313 25.1 12.218 24.9533L12.298 24.9L12.698 24.54C12.8313 24.4067 13.0047 24.34 13.1647 24.34H13.698C13.9646 24.3133 14.2046 24.0733 14.2313 23.8067L14.2846 23.54C14.2846 23.3667 14.3647 23.2067 14.4847 23.0733C14.618 22.94 14.7513 22.86 14.8847 22.8067L15.0447 22.74C15.2713 22.6467 15.4446 22.4467 15.5246 22.2067L15.6047 21.8867C15.6713 21.62 15.8047 21.3533 16.0047 21.18L16.0313 21.1533C16.1913 21.02 16.218 20.7533 16.1113 20.5667L16.0713 20.4733C15.978 20.34 15.9646 20.14 16.0313 19.9667C16.098 19.78 16.1647 19.62 16.2713 19.46L16.4046 19.2733C16.458 19.1667 16.458 19.0067 16.378 18.9133C16.298 18.8067 16.2446 18.6733 16.2446 18.54L16.218 18.3533V17.9C16.2447 17.7667 16.218 17.5933 16.178 17.46L16.1246 17.3L16.1113 17.26ZM14.2047 16.2467V16.2067C14.2047 16.0733 14.1246 15.9933 14.018 15.9933H13.6713C13.538 16.02 13.4046 16.02 13.298 15.9933H12.698C12.3913 15.9933 12.098 15.94 11.8046 15.86L11.4846 15.78L11.218 15.7L10.618 15.5C10.298 15.4067 10.058 15.1933 9.91132 14.9L9.84465 14.7667C9.75132 14.5667 9.55132 14.46 9.35132 14.5C9.12465 14.5 8.89798 14.5 8.68465 14.3933L8.52465 14.3267C8.21798 14.1933 7.99132 13.9267 7.99132 13.5667L7.93798 13.2067C7.89798 13.02 7.77798 12.8467 7.61798 12.78C7.43132 12.7 7.25798 12.5933 7.08465 12.4733L7.01798 12.4333C6.81798 12.2733 6.64465 12.06 6.55132 11.8067L6.52465 11.7267C6.45798 11.5133 6.44465 11.2867 6.49798 11.06L6.52465 10.98C6.57798 10.8067 6.59132 10.6333 6.59132 10.4467C6.59132 10.2867 6.52465 10.1267 6.40465 10.0067L6.21798 9.83333C6.00465 9.66 5.87132 9.40667 5.85798 9.12667C5.83132 8.83333 5.83132 8.55333 5.88465 8.27333V8.23333V8.19333C5.88465 8.03333 5.75132 7.92667 5.61798 7.92667H5.57798C5.40465 7.92667 5.25798 8.03333 5.17798 8.19333C5.11132 8.38 5.00465 8.52667 4.88465 8.67333L4.83132 8.74L4.56465 9.00667L4.43132 9.14C4.29798 9.27333 4.21798 9.47333 4.19132 9.67333C4.16465 9.87333 4.11132 10.0733 4.03132 10.26L4.00465 10.3267C3.93798 10.4867 3.83132 10.6333 3.69798 10.7267C3.56465 10.8333 3.47132 10.9933 3.47132 11.1533L3.44465 11.7667C3.44465 12.0333 3.40465 12.3 3.31132 12.5667L3.28465 12.6733C3.21798 12.8467 3.28465 13.0333 3.44465 13.1133L4.00465 13.3533L4.05798 13.38C4.09798 13.38 4.11132 13.4067 4.12465 13.4467C4.16465 13.5 4.12465 13.58 4.08465 13.58L3.95132 13.6467C3.87132 13.6733 3.81798 13.7533 3.79132 13.8467L3.76465 13.98V14.0067L3.63132 14.7533C3.60465 14.86 3.60465 14.98 3.60465 15.1C3.60465 15.2067 3.67132 15.3 3.76465 15.34L4.05798 15.4733C4.19132 15.5533 4.35132 15.6467 4.45798 15.74L4.59132 15.8467C4.63132 15.9 4.69798 15.9533 4.75132 15.98L4.80465 16.0333C4.89798 16.1133 4.96465 16.22 4.99132 16.34L5.12465 16.94C5.12465 17.1 5.25798 17.2333 5.39132 17.2733L5.60465 17.34C5.60465 17.34 5.64465 17.34 5.67132 17.3667L5.93798 17.4467C6.15132 17.5133 6.33798 17.6333 6.49798 17.7933C6.65798 17.9267 6.81798 18.1 6.95132 18.2867L7.00465 18.34C7.11132 18.4733 7.27132 18.54 7.43132 18.5C7.59132 18.46 7.76465 18.4467 7.93798 18.4467H8.13798C8.27132 18.4467 8.44465 18.4867 8.59132 18.58C8.72465 18.66 8.89798 18.7133 9.05798 18.78H9.09798C9.25798 18.8467 9.43132 18.82 9.56465 18.7267C9.69798 18.62 9.87132 18.5667 10.0447 18.5667L10.6713 18.6067C10.8047 18.6067 10.938 18.58 11.0047 18.4733H11.0313L11.258 18.26L11.3247 18.1933C11.4313 18.06 11.5913 18.0067 11.7513 17.9933H12.3513C12.5113 17.9933 12.658 17.86 12.7247 17.7267C12.7913 17.5933 12.9246 17.4867 13.0846 17.46L13.3513 17.4067C13.458 17.4067 13.5513 17.3133 13.5913 17.1933C13.6313 17.06 13.698 16.9533 13.7913 16.8733L14.0047 16.66C14.138 16.5267 14.2046 16.3933 14.2313 16.2333L14.2047 16.2467Z" fill="white"/>
</svg>
