<svg width="32" height="37" viewBox="0 0 32 37" fill="none" xmlns="http://www.w3.org/2000/svg">
<path d="M12.6903 15.5598C12.1939 15.5599 11.7176 15.7571 11.3666 16.1081C11.0156 16.4592 10.8184 16.9353 10.8184 17.4317C10.8184 17.9281 11.0157 18.4042 11.3667 18.7552C11.7177 19.1062 12.1938 19.3034 12.6902 19.3034C13.1866 19.3034 13.6627 19.1062 14.0137 18.7552C14.3648 18.4042 14.562 17.9281 14.562 17.4317C14.562 16.9353 14.3648 16.4592 14.0138 16.1081C13.6628 15.7571 13.1868 15.5599 12.6903 15.5598ZM19.3646 15.5598C18.9558 15.5252 18.5461 15.6148 18.1891 15.8169C17.8321 16.019 17.5445 16.3241 17.3638 16.6924C17.1831 17.0607 17.1178 17.475 17.1765 17.881C17.2352 18.287 17.4151 18.6658 17.6927 18.9679C17.9702 19.2699 18.3325 19.4811 18.7321 19.5739C19.1317 19.6666 19.55 19.6365 19.9323 19.4876C20.3145 19.3386 20.6428 19.0777 20.8743 18.739C21.1058 18.4004 21.2296 17.9997 21.2296 17.5895C21.2405 17.3337 21.2009 17.0783 21.1131 16.8379C21.0253 16.5974 20.8909 16.3766 20.7177 16.1882C20.5445 15.9997 20.3358 15.8472 20.1037 15.7393C19.8715 15.6315 19.6203 15.5705 19.3646 15.5598ZM28.2513 0.21817H3.7487C3.25521 0.219336 2.76679 0.317698 2.31131 0.507638C1.85584 0.697579 1.44225 0.975378 1.09414 1.32517C0.746037 1.67497 0.470245 2.08991 0.282513 2.54629C0.0947811 3.00268 -0.00121323 3.49158 1.15743e-05 3.98507V28.7073C-0.00119219 29.2008 0.0948174 29.6897 0.282558 30.146C0.470298 30.6024 0.746093 31.0173 1.09419 31.3671C1.44229 31.7169 1.85588 31.9947 2.31135 32.1846C2.76681 32.3746 3.25522 32.4729 3.7487 32.4741H24.4846L23.5154 29.0912L25.8559 31.2672L28.0686 33.3152L32 36.7895V3.98507C32.0012 3.49158 31.9052 3.00268 31.7175 2.54629C31.5298 2.08991 31.254 1.67497 30.9059 1.32517C30.5578 0.975378 30.1442 0.697579 29.6887 0.507638C29.2332 0.317698 28.7448 0.219336 28.2513 0.21817ZM21.1931 24.0992C21.1931 24.0992 20.5347 23.313 19.9861 22.6181C21.3116 22.306 22.484 21.5353 23.296 20.4421C22.6381 20.8801 21.9326 21.242 21.1931 21.5209C20.3425 21.884 19.4528 22.1479 18.5417 22.3072C16.9756 22.5956 15.3696 22.5894 13.8058 22.289C12.8877 22.1093 11.9879 21.8461 11.1176 21.5028C10.659 21.3263 10.213 21.1186 9.78278 20.881C9.72786 20.8444 9.67318 20.8261 9.61828 20.7895C9.59077 20.7759 9.56598 20.7573 9.54514 20.7348C9.21615 20.5519 9.03298 20.4239 9.03298 20.4239C9.81564 21.4941 10.9475 22.2572 12.2331 22.5815C11.6847 23.2765 11.008 24.0992 11.008 24.0992C9.92184 24.1285 8.8451 23.8903 7.87259 23.4056C6.90008 22.921 6.06162 22.2047 5.43099 21.3198C5.49037 17.6128 6.39067 13.9676 8.06401 10.6592C9.53664 9.50267 11.332 8.8318 13.2022 8.73925L13.385 8.95877C11.6254 9.39415 9.9835 10.212 8.57601 11.3541C8.57601 11.3541 8.97835 11.1347 9.6548 10.8239C10.9693 10.2238 12.3702 9.83506 13.8059 9.67194C13.9083 9.65063 14.0123 9.63836 14.1169 9.63527C15.3422 9.47564 16.5822 9.4634 17.8105 9.5988C19.742 9.81935 21.6118 10.4157 23.3144 11.3541C21.9783 10.2665 20.4265 9.47496 18.7616 9.03185L19.0174 8.73943C20.8877 8.8319 22.6831 9.50278 24.1557 10.6594C25.8291 13.9677 26.7295 17.6129 26.7889 21.3199C26.1531 22.2039 25.311 22.9193 24.3358 23.4037C23.3605 23.888 22.2817 24.1268 21.1931 24.0992Z" fill="white"/>
</svg>
