<svg width="32" height="32" viewBox="0 0 32 32" fill="none" xmlns="http://www.w3.org/2000/svg">
  <path fill-rule="evenodd" clip-rule="evenodd"
    d="M3.55556 32H28.4444C30.4081 32 32 30.4081 32 28.4444V3.55556C32 1.59188 30.4081 0 28.4444 0H3.55556C1.59188 0 0 1.59188 0 3.55556V28.4444C0 30.4081 1.59188 32 3.55556 32Z"
    fill="white" />
  <path fill-rule="evenodd" clip-rule="evenodd"
    d="M8 11.6275V20.6877C8 21.1806 8.36077 21.5801 8.85781 21.5801H22.9977C23.4942 21.5801 23.8555 21.1759 23.8555 20.6877V11.6275C23.8555 11.0866 23.5324 10.6665 22.9977 10.6665H8.85781C8.30245 10.6665 8 11.097 8 11.6275ZM9.30374 12.4167C9.30374 12.1984 9.43587 12.0735 9.64697 12.0735C9.77755 12.0735 14.9156 15.3292 15.2268 15.5202L16.031 16.0203C16.2859 15.8495 16.5419 15.7034 16.8062 15.5264C17.3455 15.1816 22.1445 12.0735 22.2766 12.0735C22.4883 12.0735 22.6199 12.1984 22.6199 12.4167C22.6199 12.6479 22.1745 12.8776 21.8844 13.0546C20.0619 14.1653 18.24 15.3762 16.4356 16.5282C16.3303 16.5994 16.1265 16.7517 15.9737 16.7284C15.8034 16.7021 10.575 13.3431 9.62374 12.7837C9.48077 12.6995 9.30374 12.6226 9.30374 12.4167Z"
    fill="#6550A3" />
</svg>