<svg width="33" height="29" viewBox="0 0 33 29" fill="none" xmlns="http://www.w3.org/2000/svg">
<path d="M16.2851 0.000153952C16.0294 0.00504383 15.7859 0.110036 15.6069 0.292559C15.4279 0.475083 15.3276 0.720566 15.3277 0.976237V19.5298C15.3277 19.7887 15.4305 20.037 15.6135 20.22C15.7966 20.4031 16.0449 20.5059 16.3037 20.5059C16.5626 20.5059 16.8109 20.4031 16.9939 20.22C17.177 20.037 17.2798 19.7887 17.2798 19.5298V0.976237C17.2798 0.846584 17.254 0.718227 17.2039 0.598659C17.1538 0.47909 17.0803 0.370708 16.9878 0.27984C16.8953 0.188972 16.7857 0.11744 16.6653 0.0694189C16.5448 0.021398 16.4147 -0.00214863 16.2851 0.000153952ZM31.0543 5.55796C30.9269 5.56164 30.8014 5.59018 30.685 5.64197L22.3082 9.38095C22.1369 9.45838 21.9915 9.58359 21.8895 9.74158C21.7875 9.89958 21.7332 10.0836 21.7332 10.2717C21.7332 10.4598 21.7875 10.6438 21.8895 10.8018C21.9915 10.9598 22.1369 11.085 22.3082 11.1624L30.685 14.9134C30.8108 14.97 30.9471 14.9996 31.085 15.0001C31.3082 14.9994 31.5243 14.9222 31.6975 14.7815C31.8707 14.6407 31.9904 14.4449 32.0367 14.2266C32.083 14.0083 32.0532 13.7807 31.952 13.5818C31.8509 13.3828 31.6847 13.2245 31.481 13.1333L25.0992 10.273L31.481 7.42345C31.7167 7.31736 31.9008 7.12239 31.9932 6.88108C32.0856 6.63977 32.0789 6.3717 31.9744 6.13534C31.8952 5.959 31.7656 5.81006 31.6018 5.7073C31.4381 5.60455 31.2476 5.55258 31.0543 5.55796ZM1.05177 12.2679C0.901317 12.2651 0.752271 12.2972 0.616276 12.3616C0.480281 12.426 0.361018 12.521 0.267806 12.6392C0.174593 12.7573 0.109955 12.8954 0.0789406 13.0426C0.0479263 13.1899 0.0513757 13.3423 0.0890196 13.488C2.40388 22.3914 10.4566 28.6106 19.668 28.6106C19.9269 28.6106 20.1752 28.5078 20.3582 28.3247C20.5413 28.1417 20.6441 27.8934 20.6441 27.6345C20.6441 27.3756 20.5413 27.1274 20.3582 26.9443C20.1752 26.7613 19.9269 26.6584 19.668 26.6584C15.6234 26.66 11.6925 25.3199 8.49113 22.848C5.28976 20.3761 2.99881 16.9121 1.97718 12.9986C1.92347 12.7928 1.804 12.6102 1.63695 12.4785C1.46991 12.3468 1.26442 12.272 1.05177 12.2679Z" fill="white"/>
</svg>
