<svg width="33" height="32" viewBox="0 0 33 32" fill="none" xmlns="http://www.w3.org/2000/svg">
<path fill-rule="evenodd" clip-rule="evenodd" d="M16.058 0C7.2226 0 0.0579834 7.16311 0.0579834 16C0.0579834 23.0691 4.64252 29.0666 10.9998 31.1823C11.7993 31.3304 12.093 30.8351 12.093 30.4126C12.093 30.0313 12.0783 28.7706 12.0714 27.4337C7.62012 28.4017 6.68086 25.5459 6.68086 25.5459C5.95297 23.6966 4.90441 23.2047 4.90441 23.2047C3.45258 22.2117 5.01384 22.2321 5.01384 22.2321C6.62034 22.345 7.46647 23.8812 7.46647 23.8812C8.89348 26.3271 11.2094 25.6199 12.1226 25.2111C12.2662 24.1771 12.6807 23.471 13.1384 23.0715C9.58455 22.6671 5.84854 21.295 5.84854 15.1642C5.84854 13.4175 6.47364 11.9902 7.49724 10.8696C7.33113 10.4665 6.78341 8.83926 7.65227 6.63525C7.65227 6.63525 8.99591 6.20548 12.0532 8.27554C13.3296 7.92098 14.6984 7.7432 16.0581 7.73703C17.4177 7.7432 18.7875 7.92098 20.0662 8.27554C23.1202 6.20548 24.4619 6.63525 24.4619 6.63525C25.3327 8.83926 24.785 10.4665 24.6189 10.8696C25.6448 11.9902 26.2655 13.4175 26.2655 15.1642C26.2655 21.3097 22.5225 22.6626 18.9596 23.0588C19.5334 23.5554 20.0447 24.5291 20.0447 26.0217C20.0447 28.1626 20.0264 29.8856 20.0264 30.4126C20.0264 30.8385 20.3143 31.3374 21.1252 31.1804C27.4792 29.0623 32.058 23.0669 32.058 16C32.058 7.16311 24.8944 0 16.058 0Z" fill="white"/>
<path d="M6.11811 22.9724C6.0829 23.0521 5.95769 23.0759 5.84381 23.0213C5.72766 22.9691 5.66272 22.8606 5.7002 22.7809C5.73463 22.6991 5.85981 22.6763 5.97576 22.731C6.09198 22.7833 6.15825 22.8927 6.11811 22.9724Z" fill="white"/>
<path d="M6.76625 23.6953C6.68999 23.7659 6.54059 23.7331 6.43938 23.6214C6.3346 23.5098 6.31524 23.3604 6.39267 23.2889C6.47134 23.2182 6.61602 23.2512 6.72073 23.3628C6.82558 23.4757 6.84596 23.6237 6.76625 23.6953Z" fill="white"/>
<path d="M7.3971 24.6167C7.29901 24.685 7.13859 24.621 7.03946 24.4788C6.94137 24.3364 6.94139 24.1657 7.04176 24.0973C7.14089 24.0291 7.29903 24.0906 7.3994 24.2317C7.49723 24.3764 7.4972 24.5472 7.3971 24.6167Z" fill="white"/>
<path d="M8.26127 25.5071C8.1735 25.6038 7.98665 25.5776 7.8501 25.4457C7.71011 25.3168 7.67129 25.1337 7.75899 25.0369C7.84805 24.9401 8.03589 24.9673 8.17348 25.0982C8.31243 25.227 8.35461 25.4113 8.26127 25.5071Z" fill="white"/>
<path d="M9.45352 26.024C9.41474 26.1492 9.23495 26.2061 9.05378 26.1529C8.87266 26.098 8.75446 25.9513 8.7909 25.8247C8.82838 25.6985 9.00919 25.6393 9.1916 25.6962C9.37252 25.7508 9.491 25.8964 9.45352 26.024Z" fill="white"/>
<path d="M10.7632 26.1198C10.7676 26.2517 10.6139 26.3612 10.4237 26.3635C10.2325 26.3679 10.0775 26.2611 10.0754 26.1312C10.0754 25.9979 10.2257 25.8897 10.417 25.8864C10.6071 25.8828 10.7632 25.9888 10.7632 26.1198Z" fill="white"/>
<path d="M11.9816 25.9125C12.0044 26.0411 11.8721 26.1733 11.6831 26.2085C11.4974 26.2427 11.3257 26.163 11.3019 26.0354C11.2789 25.9035 11.4133 25.7712 11.5989 25.7371C11.7881 25.7042 11.9575 25.7815 11.9816 25.9125Z" fill="white"/>
</svg>
