<svg width="32" height="32" viewBox="0 0 32 32" fill="none" xmlns="http://www.w3.org/2000/svg">
<path d="M5.6 32H26.4C29.4928 32 32 29.4928 32 26.4L32 5.6C32 2.50721 29.4928 0 26.4 0L5.6 0C2.50721 0 0 2.50721 0 5.6V26.4C0 29.4928 2.50721 32 5.6 32Z" fill="white"/>
<path d="M22 28H10C8.4087 28 6.88258 27.3679 5.75736 26.2426C4.63214 25.1174 4 23.5913 4 22V10C4 8.4087 4.63214 6.88258 5.75736 5.75736C6.88258 4.63214 8.4087 4 10 4H22C23.5913 4 25.1174 4.63214 26.2426 5.75736C27.3679 6.88258 28 8.4087 28 10V22C28 23.5913 27.3679 25.1174 26.2426 26.2426C25.1174 27.3679 23.5913 28 22 28ZM10 6.4C9.04563 6.40132 8.13072 6.78103 7.45588 7.45588C6.78103 8.13072 6.40132 9.04563 6.4 10V22C6.40132 22.9544 6.78103 23.8693 7.45588 24.5441C8.13072 25.219 9.04563 25.5987 10 25.6H22C22.9544 25.5987 23.8693 25.219 24.5441 24.5441C25.219 23.8693 25.5987 22.9544 25.6 22V10C25.5987 9.04563 25.219 8.13072 24.5441 7.45588C23.8693 6.78103 22.9544 6.40132 22 6.4H10Z" fill="#6550A3"/>
<path d="M16 22.8002C14.655 22.8002 13.3403 22.4014 12.2221 21.6542C11.1038 20.907 10.2322 19.845 9.71757 18.6024C9.2029 17.3599 9.06823 15.9927 9.33061 14.6736C9.59299 13.3545 10.2406 12.1429 11.1916 11.1919C12.1426 10.2409 13.3543 9.59324 14.6733 9.33086C15.9924 9.06848 17.3597 9.20314 18.6022 9.71782C19.8447 10.2325 20.9068 11.1041 21.6539 12.2223C22.4011 13.3406 22.8 14.6553 22.8 16.0002C22.7986 17.8033 22.0818 19.5321 20.8068 20.8071C19.5319 22.082 17.803 22.7989 16 22.8002ZM16 11.6002C15.1297 11.6002 14.279 11.8583 13.5554 12.3417C12.8319 12.8252 12.2679 13.5124 11.9349 14.3164C11.6019 15.1204 11.5147 16.0051 11.6845 16.8586C11.8543 17.7121 12.2733 18.4961 12.8887 19.1115C13.504 19.7268 14.288 20.1459 15.1416 20.3157C15.9951 20.4854 16.8798 20.3983 17.6838 20.0653C18.4878 19.7322 19.1749 19.1683 19.6584 18.4447C20.1419 17.7211 20.4 16.8704 20.4 16.0002C20.3986 14.8337 19.9346 13.7153 19.1098 12.8904C18.2849 12.0655 17.1665 11.6015 16 11.6002Z" fill="#6550A3"/>
<path d="M22.8 10.7999C23.4627 10.7999 24 10.2626 24 9.5999C24 8.93716 23.4627 8.3999 22.8 8.3999C22.1372 8.3999 21.6 8.93716 21.6 9.5999C21.6 10.2626 22.1372 10.7999 22.8 10.7999Z" fill="#6550A3"/>
</svg>
