<svg width="33" height="33" viewBox="0 0 33 33" fill="none" xmlns="http://www.w3.org/2000/svg">
<path d="M29.6395 0.915436C30.9445 0.915436 32.0073 1.94875 32.0073 3.22331V30.614C32.0073 31.8886 30.9445 32.9236 29.6395 32.9236H2.36081C1.05837 32.9236 0 31.8886 0 30.614V3.22331C0 1.94875 1.05837 0.915436 2.36081 0.915436H29.6395ZM27.2752 28.1897V19.8126C27.2752 15.6987 26.3869 12.5359 21.5802 12.5359C19.2705 12.5359 17.7215 13.8024 17.0885 15.0032H17.0235V12.915H12.4728V28.1897H17.2144V20.6349C17.2144 18.6422 17.5914 16.7116 20.0616 16.7116C22.4979 16.7116 22.5283 18.9904 22.5283 20.7617V28.1897H27.2752ZM9.49463 12.915H4.7425V28.1897H9.49463V12.915ZM7.11981 5.32194C5.59512 5.32194 4.36569 6.55537 4.36569 8.07487C4.36569 9.59475 5.59512 10.8281 7.11981 10.8281C8.6385 10.8281 9.87144 9.59475 9.87144 8.07487C9.87144 6.55537 8.6385 5.32194 7.11981 5.32194Z" fill="white"/>
</svg>
