<svg width="32" height="32" viewBox="0 0 32 32" fill="none" xmlns="http://www.w3.org/2000/svg">
<path d="M26.6667 28.4444H5.33333C4.35556 28.4444 3.55556 27.6444 3.55556 26.6667V5.33333C3.55556 4.35556 4.35556 3.55556 5.33333 3.55556H14.2222C15.2 3.55556 16 2.75556 16 1.77778C16 0.8 15.2 0 14.2222 0H3.55556C1.58222 0 0 1.6 0 3.55556V28.4444C0 30.4 1.6 32 3.55556 32H28.4444C30.4 32 32 30.4 32 28.4444V17.7778C32 16.8 31.2 16 30.2222 16C29.2444 16 28.4444 16.8 28.4444 17.7778V26.6667C28.4444 27.6444 27.6444 28.4444 26.6667 28.4444ZM19.5556 1.77778C19.5556 2.75556 20.3556 3.55556 21.3333 3.55556H25.9378L9.70667 19.7867C9.01333 20.48 9.01333 21.6 9.70667 22.2933C10.4 22.9867 11.52 22.9867 12.2133 22.2933L28.4444 6.06222V10.6667C28.4444 11.6444 29.2444 12.4444 30.2222 12.4444C31.2 12.4444 32 11.6444 32 10.6667V1.77778C32 0.8 31.2 0 30.2222 0H21.3333C20.3556 0 19.5556 0.8 19.5556 1.77778Z" fill="white"/>
</svg>
