<svg width="32" height="32" viewBox="0 0 32 32" fill="none" xmlns="http://www.w3.org/2000/svg">
<path fill-rule="evenodd" clip-rule="evenodd" d="M16 32C24.8366 32 32 24.8366 32 16C32 7.16344 24.8366 0 16 0C7.16344 0 0 7.16344 0 16C0 24.8366 7.16344 32 16 32Z" fill="white"/>
<path fill-rule="evenodd" clip-rule="evenodd" d="M16.038 24.6514C14.5124 24.6514 13.0792 24.2615 11.8323 23.5772L7.01538 25.1078L8.58565 20.4758C7.79362 19.1747 7.33735 17.649 7.33735 16.0181C7.33735 11.25 11.2327 7.38477 16.0382 7.38477C20.8431 7.38477 24.7385 11.25 24.7385 16.0181C24.7385 20.7862 20.8433 24.6514 16.038 24.6514ZM16.038 8.75968C12.0042 8.75968 8.7231 12.0158 8.7231 16.0181C8.7231 17.6063 9.24081 19.0771 10.1163 20.2738L9.20261 22.9693L12.0135 22.0758C13.1686 22.8342 14.5522 23.2765 16.038 23.2765C20.0712 23.2765 23.3529 20.0205 23.3529 16.0183C23.3529 12.016 20.0712 8.75968 16.038 8.75968ZM20.4314 18.0064C20.3778 17.9184 20.2356 17.8652 20.0227 17.7595C19.8093 17.6537 18.7605 17.1415 18.5653 17.0712C18.3696 17.0007 18.2272 16.9651 18.0852 17.177C17.9432 17.3889 17.5344 17.8652 17.4098 18.0064C17.2853 18.1478 17.1611 18.1655 16.9478 18.0596C16.7347 17.9538 16.0475 17.7303 15.2326 17.0094C14.5987 16.4485 14.1706 15.7562 14.0463 15.5441C13.9219 15.3324 14.0331 15.218 14.1399 15.1126C14.2358 15.0177 14.3531 14.8655 14.4599 14.742C14.5666 14.6183 14.602 14.5303 14.6729 14.3889C14.7442 14.2477 14.7086 14.1243 14.6552 14.0181C14.6018 13.9124 14.1751 12.871 13.9975 12.4473C13.8199 12.0239 13.6424 12.0944 13.5178 12.0944C13.3933 12.0944 13.2511 12.0767 13.109 12.0767C12.9668 12.0767 12.7356 12.1296 12.5401 12.3413C12.3447 12.5532 11.7939 13.0652 11.7939 14.1063C11.7939 15.1477 12.5578 16.1538 12.6647 16.2947C12.7712 16.4357 14.1397 18.6421 16.3076 19.4894C18.4763 20.3366 18.4763 20.054 18.8674 20.0188C19.2579 19.9835 20.1287 19.507 20.3069 19.0129C20.4843 18.5184 20.4843 18.0946 20.4314 18.0064Z" fill="#6550A3"/>
</svg>
